<?xml version="1.0" encoding="UTF-8"?>
<svg id="Layer_1" data-name="Layer 1" xmlns="http://www.w3.org/2000/svg" xmlns:xlink="http://www.w3.org/1999/xlink" viewBox="0 0 744.94 744.94">
  <defs>
    <style>
      .cls-1 {
        fill: #fff;
      }

      .cls-1, .cls-2, .cls-3, .cls-4 {
        fill-rule: evenodd;
      }

      .cls-2 {
        fill: #bf0d3e;
      }

      .cls-3 {
        fill: #00205b;
      }

      .cls-5 {
        clip-rule: evenodd;
        fill: none;
      }

      .cls-6 {
        clip-path: url(#clippath);
      }
    </style>
    <clipPath id="clippath">
      <path class="cls-5" d="M372.47,0c205.71,0,372.47,166.76,372.47,372.47s-166.76,372.47-372.47,372.47S0,578.18,0,372.47,166.76,0,372.47,0h0Z"/>
    </clipPath>
  </defs>
  <g class="cls-6">
    <polygon class="cls-3" points="0 0 371.22 0 371.22 744.94 0 744.94 0 0 0 0"/>
    <polygon class="cls-1" points="185.61 232.57 217.29 330.72 320.43 330.52 236.88 390.98 268.94 489.01 185.61 428.23 102.29 489.01 134.35 390.98 50.79 330.52 153.93 330.72 185.61 232.57 185.61 232.57"/>
    <polygon class="cls-1" points="371.22 372.47 1115.18 372.47 1115.18 0 371.22 0 371.22 372.47 371.22 372.47"/>
    <polygon class="cls-2" points="1115.18 372.47 371.22 372.47 371.22 744.94 1115.18 744.94 1115.18 372.47 1115.18 372.47"/>
  </g>
  <path class="cls-4" d="M15.18,372.47C15.18,175.14,175.14,15.18,372.47,15.18s357.29,159.96,357.29,357.29-159.96,357.29-357.29,357.29S15.18,569.79,15.18,372.47h0ZM744.94,372.47C744.94,166.76,578.18,0,372.47,0S0,166.76,0,372.47s166.76,372.47,372.47,372.47,372.47-166.76,372.47-372.47h0Z"/>
</svg>