<?xml version="1.0" encoding="UTF-8"?>
<svg id="Layer_1" data-name="Layer 1" xmlns="http://www.w3.org/2000/svg" xmlns:xlink="http://www.w3.org/1999/xlink" viewBox="0 0 2400 872.67">
  <defs>
    <style>
      .cls-1 {
        fill: none;
      }

      .cls-2, .cls-3, .cls-4 {
        fill-rule: evenodd;
      }

      .cls-2, .cls-5 {
        fill: #fff;
      }

      .cls-3 {
        fill: #bf0d3e;
      }

      .cls-6 {
        fill: rgba(255, 255, 255, 0);
      }

      .cls-4 {
        fill: #00205b;
      }

      .cls-7 {
        clip-path: url(#clippath);
      }
    </style>
    <clipPath id="clippath">
      <circle class="cls-1" cx="434.1" cy="434.1" r="410.57"/>
    </clipPath>
  </defs>
  <g>
    <rect class="cls-6" x="23.53" y="23.53" width="1229.25" height="821.13"/>
    <g class="cls-7">
      <g>
        <polygon class="cls-4" points="23.53 23.53 432.72 23.53 432.72 844.66 23.53 844.66 23.53 23.53 23.53 23.53"/>
        <polygon class="cls-2" points="228.13 279.89 263.05 388.08 376.74 387.86 284.64 454.5 319.98 562.56 228.13 495.56 136.28 562.56 171.62 454.5 79.52 387.86 193.21 388.08 228.13 279.89 228.13 279.89"/>
        <polygon class="cls-2" points="432.72 434.1 1252.77 434.1 1252.77 23.53 432.72 23.53 432.72 434.1 432.72 434.1"/>
        <polygon class="cls-3" points="1252.77 434.1 432.72 434.1 432.72 844.66 1252.77 844.66 1252.77 434.1 1252.77 434.1"/>
      </g>
    </g>
    <path class="cls-2" d="M40.26,434.1c0-217.51,176.32-393.83,393.83-393.83s393.83,176.32,393.83,393.83-176.32,393.83-393.83,393.83S40.26,651.6,40.26,434.1h0ZM844.66,434.1c0-226.75-183.82-410.57-410.57-410.57S23.53,207.35,23.53,434.1s183.82,410.57,410.57,410.57,410.57-183.82,410.57-410.57h0Z"/>
  </g>
  <g>
    <g>
      <path class="cls-5" d="M1007.82,156.34h273.69v99.32h-55.78c0-7.57-.19-14.14-.56-19.71-.45-5.57-1.34-10.1-2.67-13.58-1.34-3.41-3.38-5.94-6.12-7.57-2.82-1.63-6.53-2.45-11.13-2.45h-10.58v111.9c0,7.35,2.15,12.32,6.46,14.92,4.31,2.67,11.43,4.01,21.38,4.01h0v62.91h-155.44v-62.91c9.95,0,17.04-1.34,21.27-4.01,4.23-2.6,6.35-7.57,6.35-14.92h0v-111.9h-10.36c-4.6,0-8.31.82-11.13,2.45-2.75,1.63-4.82,4.16-6.24,7.57-1.41,3.49-2.3,8.02-2.67,13.58-.3,5.57-.45,12.14-.45,19.71h-56.01v-99.32ZM1430.93,343.17h30.62c4.6,0,8.46-.41,11.58-1.22,3.12-.74,5.6-2.23,7.46-4.45,1.86-2.23,3.12-5.23,3.79-9.02.67-3.86,1-8.8,1-14.81h59.35v92.42h-241.62v-62.91c9.95,0,17.07-1.34,21.38-4.01,4.31-2.6,6.46-7.57,6.46-14.92h0v-85.85c0-7.42-2.15-12.47-6.46-15.14-4.31-2.67-11.43-4.01-21.38-4.01h0v-62.91h241.62v92.42h-59.35c0-6.01-.33-10.91-1-14.7-.67-3.86-1.93-6.87-3.79-9.02-1.86-2.15-4.34-3.67-7.46-4.57-3.12-.82-6.98-1.22-11.58-1.22h-30.62v45.09h54.11v30.06h-54.11v48.77ZM1700.71,236.39l14.92,14.92,15.25-14.92c2.08-2.15,3.82-4.27,5.23-6.35,1.34-2.08,1.82-3.86,1.45-5.34-.3-1.48-1.67-2.75-4.12-3.79-2.45-1.11-6.31-1.67-11.58-1.67h0v-62.91h98.65v62.91c-7.2,0-13.7,1.45-19.49,4.34-5.79,2.89-12.06,7.83-18.82,14.81h0l-39.53,39.86,46.1,45.99c5.34,5.05,10.99,9.46,16.92,13.25,5.94,3.79,11.88,5.68,17.82,5.68h0v62.91h-142.08v-62.91c4.9,0,8.57-.52,11.02-1.56,2.38-.96,3.79-2.23,4.23-3.79.37-1.48-.04-3.3-1.22-5.46-1.19-2.08-2.78-4.12-4.79-6.12h0l-16.48-15.92-16.59,15.92c-2.08,2-3.82,4.05-5.23,6.12-1.41,2.15-1.93,3.97-1.56,5.46.3,1.56,1.67,2.82,4.12,3.79,2.45,1.04,6.31,1.56,11.58,1.56h0v62.91h-98.43v-62.91c7.13,0,13.58-1.45,19.37-4.34,5.86-2.89,12.1-7.76,18.71-14.59h0l40.75-41.42-44.65-44.43c-5.27-5.05-10.58-9.5-15.92-13.36-5.27-3.86-10.91-5.79-16.92-5.79h0v-62.91h138.51v62.91c-4.82,0-8.35.56-10.58,1.67-2.23,1.04-3.45,2.3-3.67,3.79s.37,3.27,1.78,5.34c1.41,2.08,3.15,4.19,5.23,6.35h0ZM1984.42,326.25l-2.34-7.35h-53.67l-2.34,7.35c-1.78,4.82-1.67,8.87.33,12.14,2.08,3.19,6.38,4.79,12.92,4.79h9.69v62.91h-105.67v-62.91h7.01c8.09,0,13.51-1.6,16.26-4.79,2.82-3.27,5.53-7.98,8.13-14.14h0l34.74-85.85c2.45-6.53,2.86-11.36,1.22-14.47s-6.57-4.68-14.81-4.68h-3.56v-62.91h174.25v62.91h-3.34c-8.39,0-13.4,1.63-15.03,4.9s-1.15,8.02,1.45,14.25h0l34.74,85.85c1.41,3.12,2.64,5.83,3.67,8.13,1.11,2.38,2.45,4.38,4.01,6.01s3.67,2.82,6.35,3.56c2.67.82,6.09,1.22,10.24,1.22h6.9v62.91h-154.1v-62.91h9.35c6.46,0,10.8-1.6,13.03-4.79,2.15-3.27,2.34-7.31.56-12.14h0ZM1954.91,240.4l-17.82,52.11h36.08l-16.92-52.11h-1.34ZM2368.56,156.34v90.75h-56.01c-.89-5.79-2.89-11.17-6.01-16.14-3.12-4.97-6.94-9.28-11.47-12.92-4.45-3.56-9.46-6.35-15.03-8.35-5.57-2-11.28-3.01-17.15-3.01h0c-7.13,0-12.88,1.37-17.26,4.12-4.45,2.67-6.68,6.46-6.68,11.36h0c0,4.6,2,8.35,6.01,11.25,3.93,2.89,9.13,5.38,15.59,7.46s13.81,4.08,22.05,6.01c8.24,1.93,16.63,4.31,25.16,7.13s16.92,6.24,25.16,10.24,15.59,9.17,22.05,15.48c6.46,6.24,11.65,13.88,15.59,22.94s5.9,19.93,5.9,32.62h0c0,13.44-2.86,24.9-8.57,34.41-5.79,9.5-13.55,17.3-23.27,23.38-9.72,6.09-20.9,10.54-33.51,13.36-12.69,2.82-25.83,4.23-39.42,4.23h0c-13.21,0-25.83-1.52-37.86-4.57-12.03-3.04-24.31-8.02-36.86-14.92h0v14.92h-56.01v-92.42h56.01c3.27,13.21,9.8,23.64,19.6,31.29,9.87,7.65,20.97,11.47,33.29,11.47h0c8.24,0,14.4-1.56,18.48-4.68s6.12-6.64,6.12-10.58h0c0-6.24-3.38-11.06-10.13-14.47-6.68-3.34-14.99-6.35-24.94-9.02-9.95-2.67-20.86-5.68-32.74-9.02-11.8-3.34-22.68-8.13-32.62-14.36-9.95-6.31-18.26-14.59-24.94-24.83-6.75-10.32-10.13-23.79-10.13-40.42h0c0-12.32,2.67-23.23,8.02-32.74,5.27-9.43,12.4-17.41,21.38-23.94,8.91-6.53,19.19-11.43,30.84-14.7,11.73-3.34,24.09-5.01,37.08-5.01h0c17.96,0,33.4,2.08,46.32,6.24,12.84,4.16,22.83,8.57,29.95,13.25h0v-15.81h56.01Z"/>
      <path class="cls-5" d="M1153.56,450.39v59.03c-9.34,0-15.97,1.22-19.9,3.67-4,2.52-6,7.26-6,14.23h0v98.28h31.8c4.37,0,8.04-.41,11.01-1.22,2.96-.89,5.3-2.67,7-5.34,1.7-2.67,2.89-6.45,3.56-11.34.67-4.89,1-11.38,1-19.46h55.7v96.39h-229.91v-59.03c9.34,0,16.01-1.22,20.01-3.67,4-2.52,6-7.23,6-14.12h0v-80.49c0-6.97-2-11.71-6-14.23-4-2.45-10.67-3.67-20.01-3.67h0v-59.03h145.75ZM1263.4,567.79h0c0-20.46,3.37-38.39,10.12-53.81,6.74-15.49,16.27-28.42,28.57-38.8s26.9-18.16,43.8-23.35c16.9-5.19,35.58-7.78,56.03-7.78h0c20.38,0,39.06,2.59,56.03,7.78,16.9,5.19,31.5,12.97,43.8,23.35,12.23,10.38,21.72,23.31,28.46,38.8,6.74,15.42,10.12,33.35,10.12,53.81h0c0,20.31-3.37,38.17-10.12,53.59-6.74,15.49-16.23,28.42-28.46,38.8-12.3,10.45-26.9,18.27-43.8,23.46-16.97,5.26-35.65,7.89-56.03,7.89h0c-20.46,0-39.13-2.63-56.03-7.89-16.9-5.19-31.5-13.01-43.8-23.46-12.3-10.38-21.83-23.31-28.57-38.8-6.74-15.42-10.12-33.28-10.12-53.59ZM1370.35,567.79h0c0,12.82.44,23.53,1.33,32.13.96,8.67,2.63,15.68,5,21.01,2.45,5.34,5.67,9.23,9.67,11.67,4,2.37,9.19,3.56,15.56,3.56h0c6.08,0,11.15-1.19,15.23-3.56,4.15-2.45,7.41-6.34,9.78-11.67,2.45-5.34,4.11-12.34,5-21.01.96-8.6,1.45-19.31,1.45-32.13h0c0-12.6-.48-23.31-1.45-32.13-.89-8.82-2.56-15.86-5-21.12-2.37-5.34-5.63-9.19-9.78-11.56-4.08-2.37-9.15-3.56-15.23-3.56h0c-6.37,0-11.56,1.19-15.56,3.56s-7.23,6.23-9.67,11.56c-2.37,5.26-4.04,12.3-5,21.12-.89,8.82-1.33,19.53-1.33,32.13ZM1820.27,508.75h0c0,33.94-17.64,52.51-52.92,55.7h0v1.67c18.45.44,32.98,5.48,43.58,15.12s15.9,23.57,15.9,41.8h0c0,7.63-.93,15.16-2.78,22.57-1.78,7.34-5.67,13.9-11.67,19.68-6,5.71-14.64,10.34-25.9,13.9-11.27,3.63-26.46,5.45-45.58,5.45h-174.88v-59.03c9.34,0,16.01-1.22,20.01-3.67,4.08-2.52,6.11-7.23,6.11-14.12h0v-80.49c0-6.97-2.04-11.71-6.11-14.23-4-2.45-10.67-3.67-20.01-3.67h0v-59.03h185.88c14.6,0,26.42,1.67,35.46,5,9.04,3.26,15.97,7.6,20.79,13.01,4.89,5.41,8.15,11.64,9.78,18.68,1.56,7.04,2.33,14.27,2.33,21.68ZM1685.97,625.6h23.68c8.89,0,15.05-1.7,18.45-5.11,3.34-3.48,5-9.23,5-17.23h0c0-8.08-1.67-13.93-5-17.57-3.41-3.71-9.56-5.56-18.45-5.56h-23.68v45.47ZM1685.97,509.42v42.58h23.9c6.6,0,11.38-2.08,14.34-6.23,2.89-4.22,4.34-9.3,4.34-15.23h0c0-5.63-1.45-10.56-4.34-14.79-2.96-4.22-7.75-6.34-14.34-6.34h-23.9ZM2105.21,508.75h0c0,33.94-17.64,52.51-52.92,55.7h0v1.67c18.45.44,32.98,5.48,43.58,15.12,10.6,9.64,15.9,23.57,15.9,41.8h0c0,7.63-.93,15.16-2.78,22.57-1.78,7.34-5.67,13.9-11.67,19.68-6,5.71-14.64,10.34-25.9,13.9-11.27,3.63-26.46,5.45-45.58,5.45h-174.88v-59.03c9.34,0,16.01-1.22,20.01-3.67,4.08-2.52,6.11-7.23,6.11-14.12h0v-80.49c0-6.97-2.04-11.71-6.11-14.23-4-2.45-10.67-3.67-20.01-3.67h0v-59.03h185.88c14.6,0,26.42,1.67,35.46,5,9.04,3.26,15.97,7.6,20.79,13.01,4.89,5.41,8.15,11.64,9.78,18.68,1.56,7.04,2.33,14.27,2.33,21.68ZM1970.8,625.6h23.79c8.89,0,15.01-1.7,18.34-5.11,3.41-3.48,5.11-9.23,5.11-17.23h0c0-8.08-1.7-13.93-5.11-17.57-3.34-3.71-9.45-5.56-18.34-5.56h-23.79v45.47ZM1970.8,509.42v42.58h24.01c6.6,0,11.34-2.08,14.23-6.23,2.96-4.22,4.45-9.3,4.45-15.23h0c0-5.63-1.48-10.56-4.45-14.79-2.89-4.22-7.63-6.34-14.23-6.34h-24.01ZM2207.93,583.35l-45.91-56.03c-2.45-2.37-4.52-4.67-6.23-6.89-1.7-2.15-3.56-4.04-5.56-5.67-1.93-1.56-4.26-2.85-7-3.89-2.74-.96-6.3-1.45-10.67-1.45h0v-59.03h139.74v59.03c-9.34,0-15.49,1.52-18.45,4.56-3.04,3.11-2.96,6.93.22,11.45h0l21.9,30.57h1.22l21.79-30.57c3.71-4.08,4.11-7.78,1.22-11.12-2.89-3.26-9.38-4.89-19.46-4.89h0v-59.03h95.72v59.03c-3.19,0-5.97.3-8.34.89-2.37.67-4.6,1.7-6.67,3.11-2.08,1.48-4.19,3.34-6.34,5.56-2.22,2.3-4.85,5.08-7.89,8.34h0l-45.69,56.03v24.46c0,6.89,2.04,11.6,6.11,14.12,4,2.45,10.67,3.67,20.01,3.67h0v59.03h-145.86v-59.03c9.34,0,16.05-1.22,20.12-3.67,4-2.52,6-7.23,6-14.12h0v-24.46Z"/>
    </g>
    <g>
      <rect class="cls-5" x="1063.49" y="798.19" width="446.33" height="11.13"/>
      <rect class="cls-5" x="1874.47" y="798.19" width="446.33" height="11.13"/>
      <path class="cls-5" d="M1543.22,840.9h0c0-2.6.78-4.68,2.34-6.24,1.56-1.56,3.45-2.34,5.68-2.34h0c2.15,0,4.01.78,5.57,2.34,1.56,1.56,2.34,3.64,2.34,6.24h0c0,2.38-.78,4.34-2.34,5.9-1.56,1.56-3.41,2.34-5.57,2.34h0c-2.23,0-4.12-.78-5.68-2.34-1.56-1.56-2.34-3.53-2.34-5.9ZM1623.28,849.14h0c-5.49,0-10.54-1.04-15.14-3.12-4.6-2.15-8.54-5.23-11.8-9.24-3.34-3.93-5.9-8.72-7.68-14.36-1.86-5.64-2.78-11.99-2.78-19.04h0c0-7.05.93-13.36,2.78-18.93,1.78-5.57,4.34-10.28,7.68-14.14,3.27-3.86,7.2-6.83,11.8-8.91,4.6-2.08,9.65-3.12,15.14-3.12h0c5.57,0,10.61,1.08,15.14,3.23,4.6,2.08,8.57,5.05,11.91,8.91,3.34,3.86,5.94,8.57,7.79,14.14,1.78,5.57,2.67,11.84,2.67,18.82h0c0,7.05-.89,13.4-2.67,19.04-1.86,5.64-4.45,10.43-7.79,14.36-3.34,4.01-7.31,7.09-11.91,9.24-4.53,2.08-9.58,3.12-15.14,3.12ZM1623.28,839.46h0c3.93,0,7.5-.85,10.69-2.56,3.12-1.71,5.83-4.12,8.13-7.24,2.23-3.19,3.97-6.98,5.23-11.36,1.26-4.45,1.89-9.43,1.89-14.92h0c0-5.42-.63-10.32-1.89-14.7-1.26-4.38-3.01-8.09-5.23-11.13-2.3-3.04-5.01-5.38-8.13-7.01-3.19-1.63-6.75-2.45-10.69-2.45h0c-3.93,0-7.46.82-10.58,2.45-3.19,1.63-5.9,3.97-8.13,7.01-2.3,3.04-4.08,6.75-5.34,11.13-1.26,4.38-1.89,9.28-1.89,14.7h0c0,5.49.63,10.47,1.89,14.92,1.26,4.38,3.04,8.17,5.34,11.36,2.23,3.12,4.94,5.53,8.13,7.24,3.12,1.71,6.64,2.56,10.58,2.56ZM1701.89,768.86v32.62h14.7c6.9,0,12.17-1.41,15.81-4.23,3.64-2.82,5.46-7.05,5.46-12.69h0c0-5.79-1.82-9.87-5.46-12.25-3.64-2.3-8.91-3.45-15.81-3.45h-14.7ZM1751.43,847.58h-12.47l-21.16-36.97h-15.92v36.97h-11.02v-87.63h27.39c4.45,0,8.57.41,12.36,1.22,3.79.89,7.01,2.3,9.69,4.23,2.75,1.93,4.86,4.45,6.35,7.57,1.56,3.12,2.34,6.98,2.34,11.58h0c0,6.83-1.78,12.29-5.34,16.37-3.56,4.08-8.35,6.9-14.36,8.46h0l22.16,38.19ZM1774.48,803.71h0c0-6.98,1-13.29,3.01-18.93,2-5.64,4.82-10.39,8.46-14.25,3.56-3.93,7.79-6.94,12.69-9.02,4.9-2.15,10.32-3.23,16.26-3.23h0c6.01,0,11.06,1.15,15.14,3.45,4.01,2.3,7.31,4.79,9.91,7.46h0l-6.24,7.01c-2.23-2.3-4.79-4.23-7.68-5.79-2.89-1.56-6.57-2.34-11.02-2.34h0c-4.45,0-8.46.82-12.03,2.45-3.56,1.63-6.61,4.01-9.13,7.13-2.45,3.04-4.38,6.75-5.79,11.13s-2.12,9.28-2.12,14.7h0c0,5.49.67,10.47,2,14.92,1.26,4.38,3.12,8.13,5.57,11.25,2.45,3.12,5.49,5.53,9.13,7.24,3.56,1.71,7.72,2.56,12.47,2.56h0c3.12,0,6.09-.48,8.91-1.45,2.82-.89,5.12-2.15,6.9-3.79h0v-22.83h-18.59v-9.24h28.73v36.86c-2.89,2.97-6.68,5.42-11.36,7.35-4.68,1.86-9.95,2.78-15.81,2.78h0c-5.79,0-11.1-1-15.92-3.01-4.75-2.08-8.87-5.05-12.36-8.91-3.49-3.86-6.2-8.61-8.13-14.25-2-5.72-3.01-12.14-3.01-19.26Z"/>
    </g>
  </g>
</svg>