<svg xmlns="http://www.w3.org/2000/svg" xmlns:xlink="http://www.w3.org/1999/xlink" version="1.0" x="0" y="0" width="2400" height="872.6728480431817" viewBox="62.226586151123044 85.81211166381836 215.5468276977539 78.37577667236329" preserveAspectRatio="xMidYMid meet" color-interpolation-filters="sRGB"><g><defs><linearGradient id="92" x1="0%" y1="0%" x2="100%" y2="0%"><stop offset="0%" stop-color="#fa71cd"></stop> <stop offset="100%" stop-color="#9b59b6"></stop></linearGradient><linearGradient id="93" x1="0%" y1="0%" x2="100%" y2="0%"><stop offset="0%" stop-color="#f9d423"></stop> <stop offset="100%" stop-color="#f83600"></stop></linearGradient><linearGradient id="94" x1="0%" y1="0%" x2="100%" y2="0%"><stop offset="0%" stop-color="#0064d2"></stop> <stop offset="100%" stop-color="#1cb0f6"></stop></linearGradient><linearGradient id="95" x1="0%" y1="0%" x2="100%" y2="0%"><stop offset="0%" stop-color="#f00978"></stop> <stop offset="100%" stop-color="#3f51b1"></stop></linearGradient><linearGradient id="96" x1="0%" y1="0%" x2="100%" y2="0%"><stop offset="0%" stop-color="#7873f5"></stop> <stop offset="100%" stop-color="#ec77ab"></stop></linearGradient><linearGradient id="97" x1="0%" y1="0%" x2="100%" y2="0%"><stop offset="0%" stop-color="#f9d423"></stop> <stop offset="100%" stop-color="#e14fad"></stop></linearGradient><linearGradient id="98" x1="0%" y1="0%" x2="100%" y2="0%"><stop offset="0%" stop-color="#009efd"></stop> <stop offset="100%" stop-color="#2af598"></stop></linearGradient><linearGradient id="99" x1="0%" y1="0%" x2="100%" y2="0%"><stop offset="0%" stop-color="#ffcc00"></stop> <stop offset="100%" stop-color="#00b140"></stop></linearGradient><linearGradient id="100" x1="0%" y1="0%" x2="100%" y2="0%"><stop offset="0%" stop-color="#d51007"></stop> <stop offset="100%" stop-color="#ff8177"></stop></linearGradient><linearGradient id="102" x1="0%" y1="0%" x2="100%" y2="0%"><stop offset="0%" stop-color="#a2b6df"></stop> <stop offset="100%" stop-color="#0c3483"></stop></linearGradient><linearGradient id="103" x1="0%" y1="0%" x2="100%" y2="0%"><stop offset="0%" stop-color="#7ac5d8"></stop> <stop offset="100%" stop-color="#eea2a2"></stop></linearGradient><linearGradient id="104" x1="0%" y1="0%" x2="100%" y2="0%"><stop offset="0%" stop-color="#00ecbc"></stop> <stop offset="100%" stop-color="#007adf"></stop></linearGradient><linearGradient id="105" x1="0%" y1="0%" x2="100%" y2="0%"><stop offset="0%" stop-color="#b88746"></stop> <stop offset="100%" stop-color="#fdf5a6"></stop></linearGradient></defs><g fill="#00205B" class="icon-text-wrapper icon-svg-group iconsvg" transform="translate(64.33979034423828,87.9253158569336)"><g class="iconsvg-imagesvg" transform="translate(0,0)"><g><rect fill="#00205B" fill-opacity="0" stroke-width="2" x="0" y="0" width="110.40000000000005" height="73.74700235803371" class="image-rect"></rect> <svg x="0" y="0" width="110.40000000000005" height="73.74700235803371" filtersec="colorsb5155218483" class="image-svg-svg primary" style="overflow: visible;"><svg xmlns="http://www.w3.org/2000/svg" viewBox="0 0 1115.1800537109375 744.9400634765625"><defs><style>.cls-1{fill:#fff;fill-rule:evenodd}</style><clipPath id="clipPath"><path d="M372.47,0c205.71,0,372.47,166.76,372.47,372.47s-166.76,372.47-372.47,372.47S0,578.18,0,372.47,166.76,0,372.47,0h0Z" clip-rule="evenodd" fill="none"></path></clipPath></defs><g clip-path="url(#clipPath)"><polygon points="0 0 371.22 0 371.22 744.94 0 744.94 0 0 0 0" fill="#00205b" fill-rule="evenodd"></polygon><polygon class="cls-1" points="185.61 232.57 217.29 330.72 320.43 330.52 236.88 390.98 268.94 489.01 185.61 428.23 102.29 489.01 134.35 390.98 50.79 330.52 153.93 330.72 185.61 232.57 185.61 232.57"></polygon><polygon class="cls-1" points="371.22 372.47 1115.18 372.47 1115.18 0 371.22 0 371.22 372.47 371.22 372.47"></polygon><polygon points="1115.18 372.47 371.22 372.47 371.22 744.94 1115.18 744.94 1115.18 372.47 1115.18 372.47" fill="#bf0d3e" fill-rule="evenodd"></polygon></g><path d="M15.18,372.47C15.18,175.14,175.14,15.18,372.47,15.18s357.29,159.96,357.29,357.29-159.96,357.29-357.29,357.29S15.18,569.79,15.18,372.47h0ZM744.94,372.47C744.94,166.76,578.18,0,372.47,0S0,166.76,0,372.47s166.76,372.47,372.47,372.47,372.47-166.76,372.47-372.47h0Z" fill-rule="evenodd"></path></svg></svg> </g></g> <g transform="translate(88.4000015258789,11.597637176513672)"><g fill-rule="" class="tp-name iconsvg-namesvg" transform="translate(0,0)"><g transform="scale(1)"><g><path d="M0.3-22.43L24.88-22.43 24.88-13.51 19.87-13.51Q19.87-14.53 19.82-15.28 19.76-16.03 19.58-16.5 19.4-16.96 19.03-17.18 18.65-17.4 18.03-17.4L18.03-17.4 17.08-17.4 17.08-7.35Q17.08-6.36 17.66-6.01 18.24-5.65 19.58-5.65L19.58-5.65 19.58 0 5.62 0 5.62-5.65Q6.96-5.65 7.53-6.01 8.1-6.36 8.1-7.35L8.1-7.35 8.1-17.4 7.17-17.4Q6.55-17.4 6.17-17.18 5.8-16.96 5.61-16.5 5.42-16.03 5.37-15.28 5.33-14.53 5.33-13.51L5.33-13.51 0.3-13.51 0.3-22.43ZM38.3-5.65L41.05-5.65Q41.67-5.65 42.09-5.76 42.51-5.86 42.76-6.16 43.01-6.46 43.1-6.97 43.19-7.49 43.19-8.3L43.19-8.3 48.52-8.3 48.52 0 26.82 0 26.82-5.65Q28.16-5.65 28.74-6.01 29.32-6.36 29.32-7.35L29.32-7.35 29.32-15.06Q29.32-16.06 28.74-16.42 28.16-16.78 26.82-16.78L26.82-16.78 26.82-22.43 48.52-22.43 48.52-14.13 43.19-14.13Q43.19-14.94 43.1-15.45 43.01-15.97 42.76-16.26 42.51-16.55 42.09-16.67 41.67-16.78 41.05-16.78L41.05-16.78 38.3-16.78 38.3-12.73 43.16-12.73 43.16-10.03 38.3-10.03 38.3-5.65ZM62.53-15.24L63.87-13.9 65.24-15.24Q65.52-15.53 65.71-15.81 65.89-16.09 65.84-16.29 65.8-16.49 65.47-16.63 65.14-16.78 64.43-16.78L64.43-16.78 64.43-22.43 73.29-22.43 73.29-16.78Q72.32-16.78 71.54-16.39 70.76-16 69.85-15.06L69.85-15.06 66.3-11.48 70.44-7.35Q71.16-6.67 71.96-6.16 72.76-5.65 73.56-5.65L73.56-5.65 73.56 0 60.8 0 60.8-5.65Q61.46-5.65 61.79-5.79 62.11-5.92 62.17-6.13 62.22-6.33 62.06-6.62 61.9-6.9 61.63-7.17L61.63-7.17 60.15-8.6 58.66-7.17Q58.38-6.9 58.19-6.62 58-6.33 58.05-6.13 58.09-5.92 58.42-5.79 58.75-5.65 59.46-5.65L59.46-5.65 59.46 0 50.62 0 50.62-5.65Q51.58-5.65 52.36-6.04 53.15-6.43 54.04-7.35L54.04-7.35 57.7-11.07 53.69-15.06Q52.98-15.74 52.26-16.26 51.55-16.78 50.74-16.78L50.74-16.78 50.74-22.43 63.18-22.43 63.18-16.78Q62.53-16.78 62.23-16.63 61.93-16.49 61.9-16.29 61.87-16.09 62.06-15.81 62.25-15.53 62.53-15.24L62.53-15.24ZM88.01-7.17L87.8-7.83 82.98-7.83 82.77-7.17Q82.53-6.52 82.8-6.08 83.08-5.65 83.96-5.65L83.96-5.65 84.83-5.65 84.83 0 75.34 0 75.34-5.65 75.97-5.65Q77.06-5.65 77.43-6.08 77.81-6.52 78.16-7.35L78.16-7.35 81.28-15.06Q81.61-15.94 81.39-16.36 81.17-16.78 80.06-16.78L80.06-16.78 79.74-16.78 79.74-22.43 95.39-22.43 95.39-16.78 95.09-16.78Q93.96-16.78 93.74-16.34 93.52-15.9 93.87-15.06L93.87-15.06 96.99-7.35Q97.18-6.93 97.32-6.62 97.47-6.3 97.68-6.08 97.89-5.86 98.25-5.76 98.61-5.65 99.17-5.65L99.17-5.65 99.79-5.65 99.79 0 85.95 0 85.95-5.65 86.79-5.65Q87.66-5.65 87.96-6.08 88.25-6.52 88.01-7.17L88.01-7.17ZM85.36-14.88L83.76-10.2 87-10.2 85.48-14.88 85.36-14.88ZM122.51-22.43L122.51-14.28 117.48-14.28Q117.36-15.06 116.94-15.73 116.52-16.4 115.91-16.89 115.31-17.37 114.56-17.64 113.81-17.91 113.02-17.91L113.02-17.91Q112.06-17.91 111.47-17.54 110.87-17.18 110.87-16.52L110.87-16.52Q110.87-15.9 111.41-15.51 111.94-15.12 112.81-14.84 113.68-14.56 114.79-14.3 115.9-14.04 117.05-13.66 118.2-13.28 119.31-12.74 120.42-12.2 121.29-11.35 122.16-10.51 122.69-9.29 123.22-8.07 123.22-6.36L123.22-6.36Q123.22-4.55 122.45-3.27 121.67-1.99 120.36-1.17 119.05-0.35 117.35 0.03 115.64 0.41 113.81 0.41L113.81 0.41Q112.03 0.41 110.41 0 108.79-0.41 107.1-1.34L107.1-1.34 107.1 0 102.07 0 102.07-8.3 107.1-8.3Q107.54-6.52 108.86-5.49 110.19-4.46 111.85-4.46L111.85-4.46Q112.96-4.46 113.51-4.88 114.06-5.3 114.06-5.83L114.06-5.83Q114.06-6.67 113.15-7.13 112.25-7.58 110.91-7.94 109.57-8.3 107.97-8.75 106.38-9.2 105.04-10.04 103.7-10.89 102.8-12.27 101.89-13.66 101.89-15.9L101.89-15.9Q101.89-17.56 102.61-18.84 103.32-20.11 104.53-20.99 105.73-21.87 107.3-22.31 108.88-22.76 110.63-22.76L110.63-22.76Q113.05-22.76 114.79-22.2 116.52-21.64 117.48-21.01L117.48-21.01 117.48-22.43 122.51-22.43Z" transform="translate(-0.30000001192092896, 22.760000228881836)"></path></g> <g fill="#BF0D3E" transform="translate(0,26.170001983642578)"><g transform="scale(0.99846)"><path d="M13.7-21.07L13.7-15.76Q12.44-15.76 11.91-15.43 11.37-15.09 11.37-14.15L11.37-14.15 11.37-5.31 14.23-5.31Q14.82-5.31 15.22-5.42 15.62-5.54 15.85-5.9 16.08-6.26 16.17-6.92 16.26-7.58 16.26-8.67L16.26-8.67 21.27-8.67 21.27 0 0.59 0 0.59-5.31Q1.85-5.31 2.39-5.64 2.93-5.98 2.93-6.91L2.93-6.91 2.93-14.15Q2.93-15.09 2.39-15.43 1.85-15.76 0.59-15.76L0.59-15.76 0.59-21.07 13.7-21.07ZM23.58-10.51L23.58-10.51Q23.58-13.27 24.49-15.35 25.4-17.44 27.06-18.84 28.72-20.24 31-20.94 33.28-21.64 36.04-21.64L36.04-21.64Q38.79-21.64 41.08-20.94 43.36-20.24 45.02-18.84 46.67-17.44 47.58-15.35 48.49-13.27 48.49-10.51L48.49-10.51Q48.49-7.77 47.58-5.69 46.67-3.6 45.02-2.2 43.36-0.79 41.08-0.09 38.79 0.62 36.04 0.62L36.04 0.62Q33.28 0.62 31-0.09 28.72-0.79 27.06-2.2 25.4-3.6 24.49-5.69 23.58-7.77 23.58-10.51ZM33.2-10.51L33.2-10.51Q33.2-8.78 33.32-7.62 33.45-6.45 33.77-5.73 34.1-5.01 34.64-4.68 35.18-4.36 36.04-4.36L36.04-4.36Q36.86-4.36 37.41-4.68 37.97-5.01 38.29-5.73 38.62-6.45 38.74-7.62 38.87-8.78 38.87-10.51L38.87-10.51Q38.87-12.21 38.74-13.4 38.62-14.59 38.29-15.3 37.97-16.02 37.41-16.34 36.86-16.66 36.04-16.66L36.04-16.66Q35.18-16.66 34.64-16.34 34.1-16.02 33.77-15.3 33.45-14.59 33.32-13.4 33.2-12.21 33.2-10.51ZM73.67-15.82L73.67-15.82Q73.67-11.24 68.91-10.81L68.91-10.81 68.91-10.66Q71.4-10.6 72.83-9.3 74.26-8 74.26-5.54L74.26-5.54Q74.26-4.51 74.01-3.51 73.77-2.52 72.96-1.74 72.15-0.97 70.63-0.49 69.11 0 66.53 0L66.53 0 50.8 0 50.8-5.31Q52.06-5.31 52.6-5.64 53.15-5.98 53.15-6.91L53.15-6.91 53.15-14.15Q53.15-15.09 52.6-15.43 52.06-15.76 50.8-15.76L50.8-15.76 50.8-21.07 67.52-21.07Q69.49-21.07 70.71-20.62 71.93-20.18 72.58-19.45 73.24-18.72 73.46-17.77 73.67-16.82 73.67-15.82ZM61.59-5.31L63.72-5.31Q64.92-5.31 65.38-5.77 65.83-6.24 65.83-7.32L65.83-7.32Q65.83-8.41 65.38-8.9 64.92-9.4 63.72-9.4L63.72-9.4 61.59-9.4 61.59-5.31ZM61.59-15.76L61.59-11.93 63.74-11.93Q64.63-11.93 65.03-12.49 65.42-13.06 65.42-13.86L65.42-13.86Q65.42-14.62 65.03-15.19 64.63-15.76 63.74-15.76L63.74-15.76 61.59-15.76ZM99.3-15.82L99.3-15.82Q99.3-11.24 94.54-10.81L94.54-10.81 94.54-10.66Q97.03-10.6 98.46-9.3 99.89-8 99.89-5.54L99.89-5.54Q99.89-4.51 99.64-3.51 99.4-2.52 98.59-1.74 97.78-0.97 96.26-0.49 94.74 0 92.16 0L92.16 0 76.43 0 76.43-5.31Q77.69-5.31 78.23-5.64 78.78-5.98 78.78-6.91L78.78-6.91 78.78-14.15Q78.78-15.09 78.23-15.43 77.69-15.76 76.43-15.76L76.43-15.76 76.43-21.07 93.15-21.07Q95.12-21.07 96.34-20.62 97.56-20.18 98.21-19.45 98.87-18.72 99.09-17.77 99.3-16.82 99.3-15.82ZM87.21-5.31L89.35-5.31Q90.55-5.31 91-5.77 91.46-6.24 91.46-7.32L91.46-7.32Q91.46-8.41 91-8.9 90.55-9.4 89.35-9.4L89.35-9.4 87.21-9.4 87.21-5.31ZM87.21-15.76L87.21-11.93 89.37-11.93Q90.26-11.93 90.65-12.49 91.05-13.06 91.05-13.86L91.05-13.86Q91.05-14.62 90.65-15.19 90.26-15.76 89.37-15.76L89.37-15.76 87.21-15.76ZM108.54-9.11L104.41-14.15Q104.08-14.47 103.85-14.77 103.62-15.06 103.35-15.28 103.09-15.49 102.72-15.63 102.35-15.76 101.76-15.76L101.76-15.76 101.76-21.07 114.33-21.07 114.33-15.76Q113.07-15.76 112.67-15.35 112.26-14.93 112.69-14.32L112.69-14.32 114.66-11.57 114.77-11.57 116.73-14.32Q117.23-14.87 116.84-15.32 116.45-15.76 115.09-15.76L115.09-15.76 115.09-21.07 123.7-21.07 123.7-15.76Q123.27-15.76 122.95-15.68 122.63-15.59 122.35-15.4 122.07-15.2 121.78-14.9 121.48-14.59 121.07-14.15L121.07-14.15 116.96-9.11 116.96-6.91Q116.96-5.98 117.51-5.64 118.05-5.31 119.31-5.31L119.31-5.31 119.31 0 106.19 0 106.19-5.31Q107.45-5.31 108-5.64 108.54-5.98 108.54-6.91L108.54-6.91 108.54-9.11Z" transform="translate(-0.5900000333786011, 21.639999389648438)"></path></g></g></g></g> <g fill-rule="" class="tp-slogan iconsvg-slogansvg" fill="#333" transform="translate(5.000003814697266,54.39572525024414)"><rect x="0" height="1" y="3.580000877380371" width="40.085208892822266"></rect> <rect height="1" y="3.580000877380371" width="40.085208892822266" x="72.83520889282227"></rect> <g transform="translate(43.085208892822266,0)"><g transform="scale(1)"><path d="M0.78-0.60L0.78-0.60Q0.78-0.95 0.99-1.16Q1.20-1.37 1.50-1.37L1.50-1.37Q1.79-1.37 2.00-1.16Q2.21-0.95 2.21-0.60L2.21-0.60Q2.21-0.28 2.00-0.07Q1.79 0.14 1.50 0.14L1.50 0.14Q1.20 0.14 0.99-0.07Q0.78-0.28 0.78-0.60ZM7.97 0.14L7.97 0.14Q7.23 0.14 6.61-0.14Q5.99-0.43 5.55-0.97Q5.10-1.50 4.86-2.26Q4.61-3.02 4.61-3.97L4.61-3.97Q4.61-4.92 4.86-5.67Q5.10-6.42 5.55-6.94Q5.99-7.46 6.61-7.74Q7.23-8.02 7.97-8.02L7.97-8.02Q8.72-8.02 9.33-7.73Q9.95-7.45 10.40-6.93Q10.85-6.41 11.10-5.66Q11.34-4.91 11.34-3.97L11.34-3.97Q11.34-3.02 11.10-2.26Q10.85-1.50 10.40-0.97Q9.95-0.43 9.33-0.14Q8.72 0.14 7.97 0.14ZM7.97-0.73L7.97-0.73Q8.50-0.73 8.93-0.96Q9.35-1.19 9.66-1.61Q9.96-2.04 10.13-2.63Q10.30-3.23 10.30-3.97L10.30-3.97Q10.30-4.70 10.13-5.29Q9.96-5.88 9.66-6.29Q9.35-6.70 8.93-6.92Q8.50-7.14 7.97-7.14L7.97-7.14Q7.44-7.14 7.02-6.92Q6.59-6.70 6.29-6.29Q5.98-5.88 5.81-5.29Q5.64-4.70 5.64-3.97L5.64-3.97Q5.64-3.23 5.81-2.63Q5.98-2.04 6.29-1.61Q6.59-1.19 7.02-0.96Q7.44-0.73 7.97-0.73ZM15.03-7.07L15.03-4.14L16.35-4.14Q17.28-4.14 17.77-4.52Q18.26-4.90 18.26-5.66L18.26-5.66Q18.26-6.44 17.77-6.76Q17.28-7.07 16.35-7.07L16.35-7.07L15.03-7.07ZM19.48 0L18.36 0L16.46-3.32L15.03-3.32L15.03 0L14.04 0L14.04-7.87L16.50-7.87Q17.10-7.87 17.61-7.76Q18.12-7.64 18.48-7.38Q18.85-7.12 19.05-6.70Q19.26-6.28 19.26-5.66L19.26-5.66Q19.26-4.74 18.78-4.19Q18.30-3.64 17.49-3.43L17.49-3.43L19.48 0ZM21.55-3.94L21.55-3.94Q21.55-4.88 21.82-5.64Q22.09-6.40 22.58-6.92Q23.06-7.45 23.72-7.73Q24.38-8.02 25.18-8.02L25.18-8.02Q25.99-8.02 26.54-7.71Q27.08-7.40 27.43-7.04L27.43-7.04L26.87-6.41Q26.57-6.72 26.18-6.93Q25.79-7.14 25.19-7.14L25.19-7.14Q24.59-7.14 24.11-6.92Q23.63-6.70 23.29-6.28Q22.96-5.87 22.77-5.28Q22.58-4.69 22.58-3.96L22.58-3.96Q22.58-3.22 22.76-2.62Q22.93-2.03 23.26-1.61Q23.59-1.19 24.08-0.96Q24.56-0.73 25.20-0.73L25.20-0.73Q25.62-0.73 26.00-0.86Q26.38-0.98 26.62-1.20L26.62-1.20L26.62-3.25L24.95-3.25L24.95-4.08L27.53-4.08L27.53-0.77Q27.14-0.37 26.51-0.11Q25.88 0.14 25.09 0.14L25.09 0.14Q24.31 0.14 23.66-0.13Q23.02-0.41 22.55-0.93Q22.08-1.45 21.82-2.21Q21.55-2.98 21.55-3.94Z" transform="translate(-0.78, 8.016)"></path></g></g></g></g></g><defs v-gra="od"></defs></g></svg>