<svg xmlns="http://www.w3.org/2000/svg" xmlns:xlink="http://www.w3.org/1999/xlink" version="1.0" x="0" y="0" width="2400" height="2293.153200734407" viewBox="128.99600303649902 85.82147300720214 82.00800155639648 78.35704635620117" preserveAspectRatio="xMidYMid meet" color-interpolation-filters="sRGB"><g><defs><linearGradient id="92" x1="0%" y1="0%" x2="100%" y2="0%"><stop offset="0%" stop-color="#fa71cd"></stop> <stop offset="100%" stop-color="#9b59b6"></stop></linearGradient><linearGradient id="93" x1="0%" y1="0%" x2="100%" y2="0%"><stop offset="0%" stop-color="#f9d423"></stop> <stop offset="100%" stop-color="#f83600"></stop></linearGradient><linearGradient id="94" x1="0%" y1="0%" x2="100%" y2="0%"><stop offset="0%" stop-color="#0064d2"></stop> <stop offset="100%" stop-color="#1cb0f6"></stop></linearGradient><linearGradient id="95" x1="0%" y1="0%" x2="100%" y2="0%"><stop offset="0%" stop-color="#f00978"></stop> <stop offset="100%" stop-color="#3f51b1"></stop></linearGradient><linearGradient id="96" x1="0%" y1="0%" x2="100%" y2="0%"><stop offset="0%" stop-color="#7873f5"></stop> <stop offset="100%" stop-color="#ec77ab"></stop></linearGradient><linearGradient id="97" x1="0%" y1="0%" x2="100%" y2="0%"><stop offset="0%" stop-color="#f9d423"></stop> <stop offset="100%" stop-color="#e14fad"></stop></linearGradient><linearGradient id="98" x1="0%" y1="0%" x2="100%" y2="0%"><stop offset="0%" stop-color="#009efd"></stop> <stop offset="100%" stop-color="#2af598"></stop></linearGradient><linearGradient id="99" x1="0%" y1="0%" x2="100%" y2="0%"><stop offset="0%" stop-color="#ffcc00"></stop> <stop offset="100%" stop-color="#00b140"></stop></linearGradient><linearGradient id="100" x1="0%" y1="0%" x2="100%" y2="0%"><stop offset="0%" stop-color="#d51007"></stop> <stop offset="100%" stop-color="#ff8177"></stop></linearGradient><linearGradient id="102" x1="0%" y1="0%" x2="100%" y2="0%"><stop offset="0%" stop-color="#a2b6df"></stop> <stop offset="100%" stop-color="#0c3483"></stop></linearGradient><linearGradient id="103" x1="0%" y1="0%" x2="100%" y2="0%"><stop offset="0%" stop-color="#7ac5d8"></stop> <stop offset="100%" stop-color="#eea2a2"></stop></linearGradient><linearGradient id="104" x1="0%" y1="0%" x2="100%" y2="0%"><stop offset="0%" stop-color="#00ecbc"></stop> <stop offset="100%" stop-color="#007adf"></stop></linearGradient><linearGradient id="105" x1="0%" y1="0%" x2="100%" y2="0%"><stop offset="0%" stop-color="#b88746"></stop> <stop offset="100%" stop-color="#fdf5a6"></stop></linearGradient></defs><g class="imagesvg isNoFont" transform="translate(129.79999923706055,86.6254768371582)"><g><rect fill="#00205B" fill-opacity="0" stroke-width="2" x="0" y="0" width="80.40000000000002" height="76.74904779632867" class="image-rect"></rect> <svg filter="url(#colors4820204902)" x="0" y="0" width="80.40000000000002" height="76.74904779632867" filtersec="colorsf4433036955" class="image-svg-svg primary" style="overflow: visible;"><svg xmlns="http://www.w3.org/2000/svg" xmlns:xlink="http://www.w3.org/1999/xlink" version="1.1" x="0px" y="0px" viewBox="6.111456394195557 8.400007247924805 87.47209167480469 83.50000762939453" enable-background="new 0 0 100 100" xml:space="preserve"><g><g><path d="M92.6,53.9c1.3-1.5,1.1-4.6,0.6-5.8c-0.3-0.6-0.7-0.9-1.1-1.1c-0.4-0.7-0.9-2.3-0.9-2.8c0.1-1.2-0.7-2.4-2.4-3.6    c-0.1-1.3-0.3-6.3-0.5-8.8c-0.1-1.4-1.3-2.5-2.7-2.5c-0.7,0-1.9-0.4-2.7-0.7c-0.8-1-2.5-2.7-4.3-2.7c-0.8,0-1.5,0.3-2,0.8    c-1,0.9-2.9,1.4-4,1.4c-0.2,0-0.2,0-0.3,0c-0.1,0-0.2-0.1-0.2-0.1c-0.5-0.3-1.4-0.8-2.6-0.8c-0.5,0-1.1,0.1-1.7,0.3    c-0.2,0.1-0.7,0.2-1.5,0.2c-1.1,0-2.3-0.2-2.9-0.3c0,0-0.1-0.1-0.1-0.1c-0.5-0.5-1.5-1.3-3-1.3c-0.7,0-1.3,0.2-2,0.5    c-0.7,0.3-1.2,0.3-1.4,0.1c-0.7-1.6-2.3-3.2-4.7-2.8c-0.4,0.1-0.7,0.1-0.9,0l-0.5-12.8c-0.1-1.5-1.2-2.6-2.7-2.6H30.2    c-1.5,0-2.7,1.2-2.7,2.7v30.4H8.8c-1,0-1.8,0.5-2.3,1.3c-0.5,0.8-0.5,1.8-0.1,2.6c0.3,0.7,0.8,1.3,1.5,1.8    c0.8,0.6,1.7,1.5,2.7,2.7c1.2,1.3,2.7,2.9,4.6,4.5c2.8,2.5,2.9,4.7,3,6.8l0,0.5c0.2,3.6,8.9,7.2,12,7.2c0.1,0,0.3,0,0.4,0    c2.4-0.2,3.4-2.7,4.2-4.5c0.3-0.6,0.6-1.6,0.8-1.7c0,0,0.1-0.1,0.5-0.1c1.2,0,3.1,0.6,3.8,0.9c0.1,0,0.1,0,0.2,0.1    c0.1,0,3.6,1,5.6,7.1c1.5,4.7,3.8,6.3,5.1,7.3c0.8,0.6,0.8,0.7,0.8,0.8c-0.1,2.9,0.9,5.1,2.9,8c1.6,2.4,5.9,3.3,9.8,4    c1.3,0.3,2.6,0.5,3.4,0.8c0.6,0.2,1.2,0.3,1.7,0.3c2.1,0,3.3-1.7,3.3-3.4c0-0.2-0.1-0.5-0.2-0.7c0,0-1.8-3.6-2.4-7.8    c-0.5-3.4,3.3-7,3.6-7.3c3.7-2.2,10.1-6.4,11.2-8.7c0.4-0.8,2-1,3.4-1.2c1.2-0.2,2.3-0.3,3.2-0.9c2.3-1.3,1.8-4,1.2-5.5    C92.4,55.4,92.4,54.2,92.6,53.9z M90.4,52c-1.5,1.6-0.7,4.7-0.6,5.3c0,0.1,0,0.2,0.1,0.2c0.2,0.5,0.5,1.6,0.1,1.8    c-0.4,0.2-1.3,0.4-2.2,0.5c-2.1,0.3-4.6,0.7-5.7,2.9c-0.5,1.1-4.8,4.3-10.1,7.4c-0.2,0.1-0.3,0.2-0.4,0.3c-0.9,0.8-5.3,5.1-4.6,10    c0.5,3.8,1.9,7.1,2.4,8.3c0,0,0,0.1-0.1,0.1c0,0-0.2,0.1-0.9-0.1c-1-0.3-2.2-0.6-3.7-0.9c-2.8-0.6-7-1.4-7.9-2.8    c-1.6-2.4-2.5-4.1-2.4-6.2c0.1-1.8-1.1-2.7-2.1-3.4c-1.2-0.8-2.8-2-4-5.8c-2.3-7.2-6.7-8.8-7.6-9.1c-0.5-0.2-2.9-1.1-4.8-1.1    c-1,0-1.8,0.2-2.4,0.7c-0.8,0.7-1.3,1.8-1.7,2.9c-0.4,1.1-1.1,2.6-1.7,2.6c0,0-0.1,0-0.1,0c-2.5,0-8.6-3.2-9-4.3l0-0.5    c-0.1-2.4-0.2-5.6-4-8.9c-1.8-1.6-3.2-3.1-4.4-4.4c-1.1-1.2-2.1-2.2-3-2.9c-0.1-0.1-0.2-0.2-0.3-0.3h18.5c1.5,0,2.7-1.2,2.7-2.7    V11.2h17.4l0.5,12.7c0,0.8,0.4,1.6,1,2c0.8,0.6,2,0.8,3.4,0.6c0.9-0.1,1.4,0.9,1.5,1.1c0.1,0.3,0.3,0.5,0.4,0.7    c0.4,0.5,1.3,1.2,2.8,1.2c0.7,0,1.5-0.2,2.2-0.5c0.8-0.4,1.1-0.2,1.8,0.4c0.3,0.3,0.7,0.6,1.3,0.7c0.5,0.1,2.1,0.4,3.7,0.4    c1,0,1.8-0.1,2.5-0.4c0.7-0.2,1-0.1,1.7,0.3c0.2,0.1,0.3,0.2,0.5,0.3c0.4,0.2,0.9,0.3,1.6,0.3c1.8,0,4.4-0.7,6-2.2    c0.3,0,1.1,0.5,2,1.6c0.3,0.3,0.6,0.6,1,0.8c0.8,0.3,2.3,0.9,3.7,1c0.2,2.6,0.4,7.6,0.4,8.6c0,0.8,0.5,1.6,1.2,2.1    c0.8,0.5,1.1,0.9,1.2,1.1c0,1.4,0.9,4.1,1.8,5.1c0.2,0.2,0.3,0.3,0.5,0.4C90.7,50.4,90.6,51.6,90.4,52z"></path><polygon points="44.2,34.2 41.7,39.3 36,40.2 40.1,44.2 39.2,49.8 44.2,47.1 49.3,49.8 48.3,44.2 52.4,40.2 46.8,39.3   "></polygon></g></g></svg></svg> <defs><filter id="colors4820204902"><feColorMatrix type="matrix" values="0 0 0 0 0  0 0 0 0 0.125  0 0 0 0 0.35546875  0 0 0 1 0" class="icon-feColorMatrix "></feColorMatrix></filter> <filter id="colorsf4433036955"><feColorMatrix type="matrix" values="0 0 0 0 0.99609375  0 0 0 0 0.99609375  0 0 0 0 0.99609375  0 0 0 1 0" class="icon-fecolormatrix"></feColorMatrix></filter> <filter id="colorsb6197045542"><feColorMatrix type="matrix" values="0 0 0 0 0  0 0 0 0 0  0 0 0 0 0  0 0 0 1 0" class="icon-fecolormatrix"></feColorMatrix></filter></defs></g></g><defs v-gra="od"></defs></g></svg>