<svg xmlns="http://www.w3.org/2000/svg" xmlns:xlink="http://www.w3.org/1999/xlink" version="1.0" x="0" y="0" width="2400" height="989.5641513531135" viewBox="59.3147006225586 79.36241485595703 221.37059875488282 91.27517028808593" preserveAspectRatio="xMidYMid meet" color-interpolation-filters="sRGB"><g><defs><linearGradient id="92" x1="0%" y1="0%" x2="100%" y2="0%"><stop offset="0%" stop-color="#fa71cd"></stop> <stop offset="100%" stop-color="#9b59b6"></stop></linearGradient><linearGradient id="93" x1="0%" y1="0%" x2="100%" y2="0%"><stop offset="0%" stop-color="#f9d423"></stop> <stop offset="100%" stop-color="#f83600"></stop></linearGradient><linearGradient id="94" x1="0%" y1="0%" x2="100%" y2="0%"><stop offset="0%" stop-color="#0064d2"></stop> <stop offset="100%" stop-color="#1cb0f6"></stop></linearGradient><linearGradient id="95" x1="0%" y1="0%" x2="100%" y2="0%"><stop offset="0%" stop-color="#f00978"></stop> <stop offset="100%" stop-color="#3f51b1"></stop></linearGradient><linearGradient id="96" x1="0%" y1="0%" x2="100%" y2="0%"><stop offset="0%" stop-color="#7873f5"></stop> <stop offset="100%" stop-color="#ec77ab"></stop></linearGradient><linearGradient id="97" x1="0%" y1="0%" x2="100%" y2="0%"><stop offset="0%" stop-color="#f9d423"></stop> <stop offset="100%" stop-color="#e14fad"></stop></linearGradient><linearGradient id="98" x1="0%" y1="0%" x2="100%" y2="0%"><stop offset="0%" stop-color="#009efd"></stop> <stop offset="100%" stop-color="#2af598"></stop></linearGradient><linearGradient id="99" x1="0%" y1="0%" x2="100%" y2="0%"><stop offset="0%" stop-color="#ffcc00"></stop> <stop offset="100%" stop-color="#00b140"></stop></linearGradient><linearGradient id="100" x1="0%" y1="0%" x2="100%" y2="0%"><stop offset="0%" stop-color="#d51007"></stop> <stop offset="100%" stop-color="#ff8177"></stop></linearGradient><linearGradient id="102" x1="0%" y1="0%" x2="100%" y2="0%"><stop offset="0%" stop-color="#a2b6df"></stop> <stop offset="100%" stop-color="#0c3483"></stop></linearGradient><linearGradient id="103" x1="0%" y1="0%" x2="100%" y2="0%"><stop offset="0%" stop-color="#7ac5d8"></stop> <stop offset="100%" stop-color="#eea2a2"></stop></linearGradient><linearGradient id="104" x1="0%" y1="0%" x2="100%" y2="0%"><stop offset="0%" stop-color="#00ecbc"></stop> <stop offset="100%" stop-color="#007adf"></stop></linearGradient><linearGradient id="105" x1="0%" y1="0%" x2="100%" y2="0%"><stop offset="0%" stop-color="#b88746"></stop> <stop offset="100%" stop-color="#fdf5a6"></stop></linearGradient></defs><g fill="#00205B" class="icon-text-wrapper icon-svg-group iconsvg" transform="translate(61.48500061035156,81.53271484375)"><g class="iconsvg-imagesvg" transform="translate(0,0)"><g><rect fill="#00205B" fill-opacity="0" stroke-width="2" x="0" y="0" width="80.40000000000002" height="76.74904779632867" class="image-rect"></rect> <svg filter="url(#colors7178530688)" x="0" y="0" width="80.40000000000002" height="76.74904779632867" filtersec="colorsf5086263818" class="image-svg-svg primary" style="overflow: visible;"><svg xmlns="http://www.w3.org/2000/svg" xmlns:xlink="http://www.w3.org/1999/xlink" version="1.1" x="0px" y="0px" viewBox="6.111456394195557 8.400007247924805 87.47209167480469 83.50000762939453" enable-background="new 0 0 100 100" xml:space="preserve"><g><g><path d="M92.6,53.9c1.3-1.5,1.1-4.6,0.6-5.8c-0.3-0.6-0.7-0.9-1.1-1.1c-0.4-0.7-0.9-2.3-0.9-2.8c0.1-1.2-0.7-2.4-2.4-3.6    c-0.1-1.3-0.3-6.3-0.5-8.8c-0.1-1.4-1.3-2.5-2.7-2.5c-0.7,0-1.9-0.4-2.7-0.7c-0.8-1-2.5-2.7-4.3-2.7c-0.8,0-1.5,0.3-2,0.8    c-1,0.9-2.9,1.4-4,1.4c-0.2,0-0.2,0-0.3,0c-0.1,0-0.2-0.1-0.2-0.1c-0.5-0.3-1.4-0.8-2.6-0.8c-0.5,0-1.1,0.1-1.7,0.3    c-0.2,0.1-0.7,0.2-1.5,0.2c-1.1,0-2.3-0.2-2.9-0.3c0,0-0.1-0.1-0.1-0.1c-0.5-0.5-1.5-1.3-3-1.3c-0.7,0-1.3,0.2-2,0.5    c-0.7,0.3-1.2,0.3-1.4,0.1c-0.7-1.6-2.3-3.2-4.7-2.8c-0.4,0.1-0.7,0.1-0.9,0l-0.5-12.8c-0.1-1.5-1.2-2.6-2.7-2.6H30.2    c-1.5,0-2.7,1.2-2.7,2.7v30.4H8.8c-1,0-1.8,0.5-2.3,1.3c-0.5,0.8-0.5,1.8-0.1,2.6c0.3,0.7,0.8,1.3,1.5,1.8    c0.8,0.6,1.7,1.5,2.7,2.7c1.2,1.3,2.7,2.9,4.6,4.5c2.8,2.5,2.9,4.7,3,6.8l0,0.5c0.2,3.6,8.9,7.2,12,7.2c0.1,0,0.3,0,0.4,0    c2.4-0.2,3.4-2.7,4.2-4.5c0.3-0.6,0.6-1.6,0.8-1.7c0,0,0.1-0.1,0.5-0.1c1.2,0,3.1,0.6,3.8,0.9c0.1,0,0.1,0,0.2,0.1    c0.1,0,3.6,1,5.6,7.1c1.5,4.7,3.8,6.3,5.1,7.3c0.8,0.6,0.8,0.7,0.8,0.8c-0.1,2.9,0.9,5.1,2.9,8c1.6,2.4,5.9,3.3,9.8,4    c1.3,0.3,2.6,0.5,3.4,0.8c0.6,0.2,1.2,0.3,1.7,0.3c2.1,0,3.3-1.7,3.3-3.4c0-0.2-0.1-0.5-0.2-0.7c0,0-1.8-3.6-2.4-7.8    c-0.5-3.4,3.3-7,3.6-7.3c3.7-2.2,10.1-6.4,11.2-8.7c0.4-0.8,2-1,3.4-1.2c1.2-0.2,2.3-0.3,3.2-0.9c2.3-1.3,1.8-4,1.2-5.5    C92.4,55.4,92.4,54.2,92.6,53.9z M90.4,52c-1.5,1.6-0.7,4.7-0.6,5.3c0,0.1,0,0.2,0.1,0.2c0.2,0.5,0.5,1.6,0.1,1.8    c-0.4,0.2-1.3,0.4-2.2,0.5c-2.1,0.3-4.6,0.7-5.7,2.9c-0.5,1.1-4.8,4.3-10.1,7.4c-0.2,0.1-0.3,0.2-0.4,0.3c-0.9,0.8-5.3,5.1-4.6,10    c0.5,3.8,1.9,7.1,2.4,8.3c0,0,0,0.1-0.1,0.1c0,0-0.2,0.1-0.9-0.1c-1-0.3-2.2-0.6-3.7-0.9c-2.8-0.6-7-1.4-7.9-2.8    c-1.6-2.4-2.5-4.1-2.4-6.2c0.1-1.8-1.1-2.7-2.1-3.4c-1.2-0.8-2.8-2-4-5.8c-2.3-7.2-6.7-8.8-7.6-9.1c-0.5-0.2-2.9-1.1-4.8-1.1    c-1,0-1.8,0.2-2.4,0.7c-0.8,0.7-1.3,1.8-1.7,2.9c-0.4,1.1-1.1,2.6-1.7,2.6c0,0-0.1,0-0.1,0c-2.5,0-8.6-3.2-9-4.3l0-0.5    c-0.1-2.4-0.2-5.6-4-8.9c-1.8-1.6-3.2-3.1-4.4-4.4c-1.1-1.2-2.1-2.2-3-2.9c-0.1-0.1-0.2-0.2-0.3-0.3h18.5c1.5,0,2.7-1.2,2.7-2.7    V11.2h17.4l0.5,12.7c0,0.8,0.4,1.6,1,2c0.8,0.6,2,0.8,3.4,0.6c0.9-0.1,1.4,0.9,1.5,1.1c0.1,0.3,0.3,0.5,0.4,0.7    c0.4,0.5,1.3,1.2,2.8,1.2c0.7,0,1.5-0.2,2.2-0.5c0.8-0.4,1.1-0.2,1.8,0.4c0.3,0.3,0.7,0.6,1.3,0.7c0.5,0.1,2.1,0.4,3.7,0.4    c1,0,1.8-0.1,2.5-0.4c0.7-0.2,1-0.1,1.7,0.3c0.2,0.1,0.3,0.2,0.5,0.3c0.4,0.2,0.9,0.3,1.6,0.3c1.8,0,4.4-0.7,6-2.2    c0.3,0,1.1,0.5,2,1.6c0.3,0.3,0.6,0.6,1,0.8c0.8,0.3,2.3,0.9,3.7,1c0.2,2.6,0.4,7.6,0.4,8.6c0,0.8,0.5,1.6,1.2,2.1    c0.8,0.5,1.1,0.9,1.2,1.1c0,1.4,0.9,4.1,1.8,5.1c0.2,0.2,0.3,0.3,0.5,0.4C90.7,50.4,90.6,51.6,90.4,52z"></path><polygon points="44.2,34.2 41.7,39.3 36,40.2 40.1,44.2 39.2,49.8 44.2,47.1 49.3,49.8 48.3,44.2 52.4,40.2 46.8,39.3   "></polygon></g></g></svg></svg> <defs><filter id="colors7178530688"><feColorMatrix type="matrix" values="0 0 0 0 0  0 0 0 0 0.125  0 0 0 0 0.35546875  0 0 0 1 0" class="icon-feColorMatrix "></feColorMatrix></filter> <filter id="colorsf5086263818"><feColorMatrix type="matrix" values="0 0 0 0 0.99609375  0 0 0 0 0.99609375  0 0 0 0 0.99609375  0 0 0 1 0" class="icon-fecolormatrix"></feColorMatrix></filter> <filter id="colorsb674959592"><feColorMatrix type="matrix" values="0 0 0 0 0  0 0 0 0 0  0 0 0 0 0  0 0 0 1 0" class="icon-fecolormatrix"></feColorMatrix></filter></defs></g></g> <g transform="translate(94.4000015258789,17.814472198486328)"><g fill-rule="" class="tp-name iconsvg-namesvg" transform="translate(0,0)"><g transform="scale(1)"><g><path d="M0.36-25.48L21.81-25.48 21.81-19.15 15.04-19.15 15.04 0 7.05 0 7.05-19.15 0.36-19.15 0.36-25.48ZM41.96-19.11L32.96-19.11 32.96-15.98 40.88-15.98 40.88-9.97 32.96-9.97 32.96-6.37 41.96-6.37 41.96 0 24.97 0 24.97-25.48 41.96-25.48 41.96-19.11ZM71.68 0L62.22 0 57.54-6.62 53.65 0 44.54 0 52.93-13.14 44.18-25.48 53.65-25.48 58.15-19.11 61.89-25.48 71-25.48 62.76-12.6 71.68 0ZM92.08 0L90.82-3.85 82.33-3.85 81.07 0 72.68 0 82-25.48 91.22-25.48 100.5 0 92.08 0ZM84.27-9.86L88.88-9.86 86.58-16.95 84.27-9.86ZM113.27 0.25Q108.7 0.25 105.73-1.89 102.76-4.03 102.51-8.17L102.51-8.17 111.01-8.17Q111.19-5.97 112.95-5.97L112.95-5.97Q113.6-5.97 114.05-6.28 114.5-6.59 114.5-7.23L114.5-7.23Q114.5-8.13 113.53-8.69 112.55-9.25 110.5-9.97L110.5-9.97Q108.06-10.83 106.45-11.66 104.85-12.49 103.7-14.07 102.55-15.66 102.58-18.14L102.58-18.14Q102.58-20.62 103.86-22.37 105.14-24.12 107.35-25.01 109.57-25.91 112.34-25.91L112.34-25.91Q117.02-25.91 119.77-23.76 122.52-21.6 122.67-17.67L122.67-17.67 114.07-17.67Q114.03-18.75 113.53-19.22 113.02-19.69 112.3-19.69L112.3-19.69Q111.8-19.69 111.47-19.35 111.15-19 111.15-18.39L111.15-18.39Q111.15-17.53 112.1-16.97 113.06-16.41 115.15-15.62L115.15-15.62Q117.56-14.72 119.12-13.89 120.69-13.07 121.84-11.59 122.99-10.11 122.99-7.88L122.99-7.88Q122.99-5.54 121.84-3.69 120.69-1.84 118.49-0.79 116.3 0.25 113.27 0.25L113.27 0.25Z" transform="translate(-0.36000001430511475, 25.90999984741211)"></path></g> <g fill="#BF0D3E" transform="translate(0,29.15999984741211)"><g transform="scale(1.00327)"><path d="M9.62-25.05L9.62-5.94 17.19-5.94 17.19 0 1.77 0 1.77-25.05 9.62-25.05ZM32.88 0.25Q29.34 0.25 26.38-1.42 23.43-3.08 21.7-6.01 19.96-8.95 19.96-12.63L19.96-12.63Q19.96-16.31 21.7-19.25 23.43-22.18 26.38-23.83 29.34-25.47 32.88-25.47L32.88-25.47Q36.41-25.47 39.35-23.83 42.29-22.18 44-19.25 45.72-16.31 45.72-12.63L45.72-12.63Q45.72-8.95 44-6.01 42.29-3.08 39.33-1.42 36.38 0.25 32.88 0.25L32.88 0.25ZM32.88-7.08Q35.21-7.08 36.48-8.58 37.76-10.08 37.76-12.63L37.76-12.63Q37.76-15.21 36.48-16.72 35.21-18.22 32.88-18.22L32.88-18.22Q30.5-18.22 29.23-16.72 27.96-15.21 27.96-12.63L27.96-12.63Q27.96-10.08 29.23-8.58 30.5-7.08 32.88-7.08L32.88-7.08ZM66.32-12.84Q68.58-12.31 69.84-10.67 71.09-9.02 71.09-6.86L71.09-6.86Q71.09-3.57 68.92-1.79 66.74 0 62.67 0L62.67 0 49.55 0 49.55-25.05 62.32-25.05Q66.14-25.05 68.33-23.38 70.53-21.72 70.53-18.54L70.53-18.54Q70.53-16.34 69.38-14.84 68.23-13.34 66.32-12.84L66.32-12.84ZM57.4-18.82L57.4-15.28 60.44-15.28Q61.5-15.28 62.02-15.71 62.53-16.13 62.53-17.02L62.53-17.02Q62.53-17.94 62.02-18.38 61.5-18.82 60.44-18.82L60.44-18.82 57.4-18.82ZM60.97-6.3Q62.04-6.3 62.55-6.7 63.06-7.11 63.06-8.03L63.06-8.03Q63.06-9.83 60.97-9.83L60.97-9.83 57.4-9.83 57.4-6.3 60.97-6.3ZM91.51-12.84Q93.78-12.31 95.03-10.67 96.29-9.02 96.29-6.86L96.29-6.86Q96.29-3.57 94.11-1.79 91.94 0 87.87 0L87.87 0 74.75 0 74.75-25.05 87.52-25.05Q91.34-25.05 93.53-23.38 95.72-21.72 95.72-18.54L95.72-18.54Q95.72-16.34 94.57-14.84 93.42-13.34 91.51-12.84L91.51-12.84ZM82.6-18.82L82.6-15.28 85.64-15.28Q86.7-15.28 87.22-15.71 87.73-16.13 87.73-17.02L87.73-17.02Q87.73-17.94 87.22-18.38 86.7-18.82 85.64-18.82L85.64-18.82 82.6-18.82ZM86.17-6.3Q87.23-6.3 87.75-6.7 88.26-7.11 88.26-8.03L88.26-8.03Q88.26-9.83 86.17-9.83L86.17-9.83 82.6-9.83 82.6-6.3 86.17-6.3ZM115.16-25.05L124-25.05 115.01-7.61 115.01 0 107.16 0 107.16-7.61 98.17-25.05 107.16-25.05 111.16-16.17 115.16-25.05Z" transform="translate(-1.7699999809265137, 25.469999313354492)"></path></g></g></g></g> <g fill-rule="" class="tp-slogan iconsvg-slogansvg" fill="#144579" transform="translate(5.000003814697266,60.96410369873047)"><rect x="0" height="1" y="3.580000877380371" width="39.939998626708984"></rect> <rect height="1" y="3.580000877380371" width="39.939998626708984" x="72.68999862670898"></rect> <g transform="translate(42.939998626708984,0)"><g transform="scale(1)"><path d="M0.78-0.60L0.78-0.60Q0.78-0.95 0.99-1.16Q1.20-1.37 1.50-1.37L1.50-1.37Q1.79-1.37 2.00-1.16Q2.21-0.95 2.21-0.60L2.21-0.60Q2.21-0.28 2.00-0.07Q1.79 0.14 1.50 0.14L1.50 0.14Q1.20 0.14 0.99-0.07Q0.78-0.28 0.78-0.60ZM7.97 0.14L7.97 0.14Q7.23 0.14 6.61-0.14Q5.99-0.43 5.55-0.97Q5.10-1.50 4.86-2.26Q4.61-3.02 4.61-3.97L4.61-3.97Q4.61-4.92 4.86-5.67Q5.10-6.42 5.55-6.94Q5.99-7.46 6.61-7.74Q7.23-8.02 7.97-8.02L7.97-8.02Q8.72-8.02 9.33-7.73Q9.95-7.45 10.40-6.93Q10.85-6.41 11.10-5.66Q11.34-4.91 11.34-3.97L11.34-3.97Q11.34-3.02 11.10-2.26Q10.85-1.50 10.40-0.97Q9.95-0.43 9.33-0.14Q8.72 0.14 7.97 0.14ZM7.97-0.73L7.97-0.73Q8.50-0.73 8.93-0.96Q9.35-1.19 9.66-1.61Q9.96-2.04 10.13-2.63Q10.30-3.23 10.30-3.97L10.30-3.97Q10.30-4.70 10.13-5.29Q9.96-5.88 9.66-6.29Q9.35-6.70 8.93-6.92Q8.50-7.14 7.97-7.14L7.97-7.14Q7.44-7.14 7.02-6.92Q6.59-6.70 6.29-6.29Q5.98-5.88 5.81-5.29Q5.64-4.70 5.64-3.97L5.64-3.97Q5.64-3.23 5.81-2.63Q5.98-2.04 6.29-1.61Q6.59-1.19 7.02-0.96Q7.44-0.73 7.97-0.73ZM15.03-7.07L15.03-4.14L16.35-4.14Q17.28-4.14 17.77-4.52Q18.26-4.90 18.26-5.66L18.26-5.66Q18.26-6.44 17.77-6.76Q17.28-7.07 16.35-7.07L16.35-7.07L15.03-7.07ZM19.48 0L18.36 0L16.46-3.32L15.03-3.32L15.03 0L14.04 0L14.04-7.87L16.50-7.87Q17.10-7.87 17.61-7.76Q18.12-7.64 18.48-7.38Q18.85-7.12 19.05-6.70Q19.26-6.28 19.26-5.66L19.26-5.66Q19.26-4.74 18.78-4.19Q18.30-3.64 17.49-3.43L17.49-3.43L19.48 0ZM21.55-3.94L21.55-3.94Q21.55-4.88 21.82-5.64Q22.09-6.40 22.58-6.92Q23.06-7.45 23.72-7.73Q24.38-8.02 25.18-8.02L25.18-8.02Q25.99-8.02 26.54-7.71Q27.08-7.40 27.43-7.04L27.43-7.04L26.87-6.41Q26.57-6.72 26.18-6.93Q25.79-7.14 25.19-7.14L25.19-7.14Q24.59-7.14 24.11-6.92Q23.63-6.70 23.29-6.28Q22.96-5.87 22.77-5.28Q22.58-4.69 22.58-3.96L22.58-3.96Q22.58-3.22 22.76-2.62Q22.93-2.03 23.26-1.61Q23.59-1.19 24.08-0.96Q24.56-0.73 25.20-0.73L25.20-0.73Q25.62-0.73 26.00-0.86Q26.38-0.98 26.62-1.20L26.62-1.20L26.62-3.25L24.95-3.25L24.95-4.08L27.53-4.08L27.53-0.77Q27.14-0.37 26.51-0.11Q25.88 0.14 25.09 0.14L25.09 0.14Q24.31 0.14 23.66-0.13Q23.02-0.41 22.55-0.93Q22.08-1.45 21.82-2.21Q21.55-2.98 21.55-3.94Z" transform="translate(-0.78, 8.016)"></path></g></g></g></g></g><defs v-gra="od"></defs></g></svg>